<?xml version="1.0" encoding="utf-8"?>
<!-- Generator: Adobe Illustrator 28.0.0, SVG Export Plug-In . SVG Version: 6.00 Build 0)  -->
<svg version="1.1" id="レイヤー_1" xmlns="http://www.w3.org/2000/svg" xmlns:xlink="http://www.w3.org/1999/xlink" x="0px"
	 y="0px" viewBox="0 0 479.6 75.8" style="enable-background:new 0 0 479.6 75.8;" xml:space="preserve">
<style type="text/css">
	.st0{fill:#6DE7CB;}
	.st1{fill:#57ADEB;}
</style>
<g id="title" transform="translate(0 0)">
	
		<g id="path386661" transform="translate(0 318.34000000000003) translate(200 27.770719999999997) scale(1.43) translate(-345.24125 51.696)">
		<path class="st0" d="M215-252.1c0,2.7-2.2,4.8-4.8,4.8s-4.8-2.1-4.8-4.8s2.2-4.8,4.8-4.8S215-254.8,215-252.1z"/>
		<path class="st1" d="M226.8-240.7c-3.7,0-8.8-1.4-8.8-5.1c0-3,2-4.7,4.4-4.5c2.4,0.1,5.1,1,7.7-0.2c2-0.9,3.5-2.7,3.5-5.3
			c0-3-3.4-5-10.7-7.6c-6.6-2.4-16.6-5.3-16.6-15.2c0-3.7,1.4-7.3,4.1-10c2.3-2.3,6.6-5,14-5c8.4,0,14,4.5,15.9,7.1
			c1.3,1.7,1.1,4-0.2,5.7c-1.7,2.2-4.3,1.9-6.1,0.4c-1.3-1.2-4.3-4.2-9.9-4.2c-4.8,0-8.2,2.5-8.2,6c0,2.3,2.5,4.2,10,7.1
			c9.2,3.5,17.4,7.4,17.4,16.3C243.2-248.1,238.2-240.7,226.8-240.7z"/>
	</g>
	
		<g id="path386663" transform="translate(0 318.34000000000003) translate(263.8224587 29.62157615000001) scale(1.43) translate(-389.87234 50.401695)">
		<path class="st1" d="M305-245.4c-0.6,1.9-2.4,3.3-4.4,3.4c-2,0.1-3.9-1.2-4.6-3l-12-30.5L272-245c-0.7,1.8-2.4,3-4.4,3
			c-0.1,0-0.1,0-0.2,0c-2-0.1-3.7-1.4-4.3-3.4l-12.8-40.8c-0.8-2.5,0.6-5.2,3.1-6s5.3,0.6,6,3.2l8.8,29.5l11.4-29.8
			c0.7-1.8,2.4-3,4.4-3c1.9,0,3.7,1.2,4.5,3l11.4,29.8l4.5-15.8c0.8-2.5,3.5-3.9,6-3.1c2.4,0.8,3.9,3.5,3.1,6L305-245.4z"/>
		<path class="st0" d="M318-287.6c0,2.7-2.1,4.8-4.8,4.8c-2.7,0-4.8-2.2-4.8-4.8c0-2.6,2.1-4.8,4.8-4.8
			C315.9-292.4,318-290.2,318-287.6z"/>
	</g>
	
		<g id="path386665" transform="translate(0 318.34000000000003) translate(375.96507499999996 27.770719999999997) scale(1.43) translate(-468.29375 51.696)">
		<path class="st0" d="M328.4-288.9c0-2.6,2.2-4.8,4.8-4.8c2.7,0,4.8,2.2,4.8,4.8c0,2.7-2.2,4.8-4.8,4.8
			C330.6-284.1,328.4-286.3,328.4-288.9z"/>
		<path class="st1" d="M328.4-246.7v-27.9c0-2.6,2.2-4.8,4.8-4.8c2.7,0,4.8,2.2,4.8,4.8v27.9c0,2.6-2.2,4.8-4.8,4.8
			C330.6-242,328.4-244.1,328.4-246.7z"/>
	</g>
	
		<g id="path386667" transform="translate(0 318.34000000000003) translate(401.6004990999999 29.62400000000001) scale(1.43) translate(-486.22062 50.4)">
		<path class="st1" d="M371.1-246.7c0,2.6-2.1,4.8-4.8,4.8c-2.7,0-4.8-2.2-4.8-4.8v-36.1h-10.4c-2.6,0-4.8-2.2-4.8-4.8
			c0-2.6,2.2-4.8,4.8-4.8h15.2c2.9,0,4.8,2.2,4.8,4.8L371.1-246.7L371.1-246.7z"/>
		<path class="st0" d="M386.3-287.6c0,2.7-2.2,4.8-4.8,4.8c-2.7,0-4.8-2.2-4.8-4.8c0-2.6,2.2-4.8,4.8-4.8
			C384.1-292.4,386.3-290.2,386.3-287.6z"/>
	</g>
	
		<g id="path386669" transform="translate(0 318.34000000000003) translate(461.28512409999996 27.770719999999997) scale(1.43) translate(-527.95812 51.696)">
		<path class="st1" d="M406.6-252.3c2.7,1.6,5.6,2.4,9.1,2.7c3.5,0.4,4.9,2.1,4.9,4.3c0,2.4-1.6,4.5-6,4.5c-3.7,0-7.3-0.8-11-2.4
			c-9.1-4.2-15.5-13.4-15.5-24c0-14.7,11.9-26.5,26.5-26.5c4.8,0,11.6,0.9,17.1,5.4c2,1.7,2.2,4.5,0.6,6.7c-1.3,1.9-4,2-6.6,0.6
			c-2.9-1.7-6.6-3.1-11.1-3.1c-9.4,0-16.9,7.6-16.9,16.9C397.7-260.7,401.2-255.2,406.6-252.3z"/>
		<path class="st0" d="M424.5-250.3c0-2.6,2.2-4.8,4.8-4.8c2.7,0,4.8,2.2,4.8,4.8c0,2.7-2.2,4.8-4.8,4.8
			C426.7-245.4,424.5-247.6,424.5-250.3z"/>
	</g>
	
		<g id="path386671" transform="translate(0 318.34000000000003) translate(540.4356384 29.62400000000001) scale(1.43) translate(-583.30813 50.4)">
		<path class="st1" d="M443.5-287.6c0-2.6,2.2-4.8,4.8-4.8c2.7,0,4.8,2.2,4.8,4.8v16.6h20.7v-2.2c0-2.6,2.2-4.8,4.8-4.8
			c2.6,0,4.8,2.2,4.8,4.8v26.6c0,2.6-2.2,4.8-4.8,4.8c-2.7,0-4.8-2.2-4.8-4.8v-15.3h-20.7v15.3c0,2.6-2.2,4.8-4.8,4.8
			c-2.6,0-4.8-2.2-4.8-4.8V-287.6z"/>
		<path class="st0" d="M473.8-287.6c0-2.6,2.2-4.8,4.8-4.8c2.6,0,4.8,2.2,4.8,4.8c0,2.7-2.2,4.8-4.8,4.8
			C475.9-282.8,473.8-285,473.8-287.6z"/>
	</g>
	
		<g id="path386673" transform="translate(0 318.34000000000003) translate(610.3980737999999 29.62400000000001) scale(1.43) translate(-632.23291 50.4)">
		<path class="st1" d="M533.7-262.6l-12.8-27.1c-0.8-1.7-2.5-2.7-4.3-2.7c-1.9,0-3.5,1.1-4.3,2.7l-19.4,40.8
			c-1.1,2.4-0.1,5.3,2.3,6.4c2.4,1.1,5.2,0.1,6.3-2.3l4.5-9.5h24.2c1.7,0,3.1-0.9,4-2.2C535.8-258.8,534.5-260.9,533.7-262.6z
			 M509.9-262.4l6.7-14.1l6.8,14.1L509.9-262.4L509.9-262.4z"/>
		<path class="st0" d="M540.8-246.7c0,2.6-2.2,4.8-4.8,4.8s-4.8-2.2-4.8-4.8c0-2.7,2.2-4.8,4.8-4.8
			C538.6-251.6,540.8-249.4,540.8-246.7z"/>
	</g>
</g>
</svg>
