<svg xmlns="http://www.w3.org/2000/svg" width="24.495" height="25.992" viewBox="0 0 24.495 25.992">
  <path id="交差_4" data-name="交差 4" d="M5.892,29.635c.1-.22.206-.439.324-.651.133-.239.259-.483.4-.722a6.023,6.023,0,0,1,1.3-1.613,11.23,11.23,0,0,1,1.279-.918,19.46,19.46,0,0,1,2.126-1.142,23.64,23.64,0,0,1,2.179-.956.257.257,0,0,1,.133,0l.421-.194a2.893,2.893,0,0,0,.521-.25c-.016.012.036-.031.043-.039a.526.526,0,0,1,.04-.043c.011-.016.021-.033.031-.05s.026-.057.028-.059a1.5,1.5,0,0,0,.067-.288c.046-.284.094-.568.123-.856a6.052,6.052,0,0,1-1.9-1.97,7.415,7.415,0,0,1-.686-1.558.264.264,0,0,1-.1,0,1.951,1.951,0,0,1-1.223-.811,3.778,3.778,0,0,1-.663-2.59,1.3,1.3,0,0,1,.207-.628,1.13,1.13,0,0,1,.293-.281,11.076,11.076,0,0,1-.273-2.177A7.146,7.146,0,0,1,11.2,8.563,4.732,4.732,0,0,1,13.628,6.11a.252.252,0,0,1,.307.175.256.256,0,0,1-.175.308,3.475,3.475,0,0,0-1.374,1.045,7.114,7.114,0,0,0-1.082,6.2,1.181,1.181,0,0,1,.806.18l.007-.007q.54-.506,1.106-.984c1.175-.99,2.435-1.868,3.643-2.815a.254.254,0,0,1,.423.142c0-.049.014.043.023.072.018.054.037.107.058.16s.047.122.072.183c0,.01.026.064.029.071l.034.078c.022.049.045.1.068.143.03-.014.059-.03.087-.046.109-.058.216-.119.323-.182.544-.315,1.074-.652,1.609-.98h0c.275-.169.527.264.253.432-.337.206-.67.415-1.007.62-.277.169-.554.338-.84.5-.162.089-.4.254-.591.2-.212-.055-.305-.366-.381-.544-.036-.085-.076-.171-.112-.259-.239.185-.481.366-.723.548A43.812,43.812,0,0,0,12.47,14.36a.236.236,0,0,1-.189.068.27.27,0,0,1-.035.044.258.258,0,0,1-.354,0,.669.669,0,0,0-.844-.006,1.1,1.1,0,0,0-.239.882,3.483,3.483,0,0,0,.2,1.1A1.989,1.989,0,0,0,12.177,17.8q-.058-.25-.1-.5a.257.257,0,0,1,.175-.308.253.253,0,0,1,.308.175,8.288,8.288,0,0,0,.329,1.3,5.952,5.952,0,0,0,1.586,2.429,4.106,4.106,0,0,0,2.328,1.13.255.255,0,0,1,.25.249.251.251,0,0,1-.25.25,4.294,4.294,0,0,1-1.435-.406c-.032.243-.071.484-.11.726a1.113,1.113,0,0,1-.323.688,1.156,1.156,0,0,1-.191.138,1.217,1.217,0,0,1-.12.058c-.029.013-.058.025-.087.036a1.914,1.914,0,0,1-.191.087q-.482.223-.964.444a.256.256,0,0,1-.24,0l-.043.017a9.477,9.477,0,0,0,1.882.9,9.833,9.833,0,0,0,4.511.463,9.715,9.715,0,0,0,3.715-1.3l-.716-.339c-.181-.086-.361-.171-.542-.255l-.015-.006-.039-.016c-.047-.019-.094-.038-.139-.06a1,1,0,0,1-.319-.24,1.262,1.262,0,0,1-.257-.653c-.031-.211-.066-.421-.095-.632a3,3,0,0,1-.515.169c-.314.071-.447-.411-.133-.482a3.149,3.149,0,0,0,1.217-.613,7.327,7.327,0,0,0,1.653-1.9,6.544,6.544,0,0,0,.417-.759l.012-.03c.009-.023.017-.048.025-.071.032-.1.065-.194.094-.292a3.124,3.124,0,0,0,.154-.808h0a.25.25,0,0,1,.5,0c-.006.124-.018.248-.035.371a1.46,1.46,0,0,0,.653-.5,3.323,3.323,0,0,0,.614-2.067.846.846,0,0,0-.319-.779.67.67,0,0,0-.763.061.256.256,0,0,1-.354,0,.285.285,0,0,1-.026-.031.251.251,0,0,1-.088-.088,9.738,9.738,0,0,0-.524-.986,7.808,7.808,0,0,0-1.246-1.58,4.889,4.889,0,0,0-1.643-1.043.256.256,0,0,1-.175-.308.252.252,0,0,1,.308-.175,5.735,5.735,0,0,1,1.054.52,6.558,6.558,0,0,1,1.589,1.536,9.445,9.445,0,0,1,1,1.634,1.181,1.181,0,0,1,.669-.121l0-.005a5.717,5.717,0,0,0,.27-1.6,6.321,6.321,0,0,0-.67-3.142,5.834,5.834,0,0,0-.855-1.2,3.018,3.018,0,0,0-.914-.732.253.253,0,0,1-.09-.343.259.259,0,0,1,.343-.089,3.661,3.661,0,0,1,1.141.95,6.407,6.407,0,0,1,.89,1.325,6.323,6.323,0,0,1,.534,1.673,6.8,6.8,0,0,1-.167,3.294.329.329,0,0,1-.013.031,1.294,1.294,0,0,1,.545,1.121,3.9,3.9,0,0,1-.172,1.354,2.455,2.455,0,0,1-1.713,1.852,3.98,3.98,0,0,1-.213.563,7.968,7.968,0,0,1-1.269,1.89,5.937,5.937,0,0,1-1.315,1.158,8.468,8.468,0,0,0,.139.925c.006.031.014.061.023.091,0,.008.029.082.018.058a.635.635,0,0,0,.039.074.3.3,0,0,0,.018.028l.015.018a.933.933,0,0,0,.338.2c.221.1.441.2.661.305a.249.249,0,0,1,.118,0,25.24,25.24,0,0,1,2.464,1.09,17.532,17.532,0,0,1,2.049,1.141,9.737,9.737,0,0,1,1.172.874,8.123,8.123,0,0,1,1.777,2.624q-.182.182-.37.36c-.072-.151-.146-.3-.227-.448-.134-.245-.265-.491-.4-.733a5.656,5.656,0,0,0-1.227-1.531c-.073-.061-.147-.121-.221-.179l-.016-.014L27.9,26.8l-.062-.047c-.048-.035-.094-.071-.143-.105q-.356-.258-.73-.49a19.021,19.021,0,0,0-2.08-1.119c-.341-.159-.68-.325-1.023-.482a9.934,9.934,0,0,1-2.276,1.132,10.254,10.254,0,0,1-4.726.482,10.118,10.118,0,0,1-4.309-1.615c-.44.2-.875.412-1.308.62a17.473,17.473,0,0,0-2,1.115c-.229.148-.454.3-.672.469l-.07.053h0l-.032.025c-.039.03-.076.06-.113.091-.071.058-.141.117-.21.179a6.009,6.009,0,0,0-1.22,1.62c-.126.23-.256.46-.376.693-.1.189-.187.381-.274.574Q6.081,29.816,5.892,29.635Zm11.285-10.4h0a.25.25,0,0,1,.253-.431l.135.068.022.009-.012-.006.024.009-.012,0,.019.007c.037.013.074.026.111.037A1.965,1.965,0,0,0,18.3,19a1.85,1.85,0,0,0,.616-.083l.084-.03c-.008,0,.048-.023.059-.029a.746.746,0,0,0,.074-.042l.029-.02a.256.256,0,0,1,.34.012.251.251,0,0,1,0,.354,1.878,1.878,0,0,1-1.163.338h-.054A2.416,2.416,0,0,1,17.177,19.237Zm.392-.363,0,0Zm.651-1.438a.236.236,0,0,1-.149-.115.249.249,0,0,1,.089-.342.275.275,0,0,1,.193-.025h0q-.046-.25-.114-.494h0a.25.25,0,0,1,.482-.133c.05.191.1.383.128.578a.608.608,0,0,1,0,.261.353.353,0,0,1-.2.237.563.563,0,0,1-.257.06C18.337,17.459,18.279,17.444,18.22,17.436Zm2.167-2.869a.649.649,0,0,1,1.173.2c.1.328.035,1.081-.585,1.145C20.155,15.906,20.111,14.994,20.387,14.567Zm-5.395.2a.649.649,0,0,1,1.173-.2c.276.428.233,1.339-.588,1.344C14.957,15.846,14.891,15.093,14.992,14.765Zm6.929-8.458A4.136,4.136,0,0,0,20.43,5.055a7.016,7.016,0,0,0-3.892-.482A6.3,6.3,0,0,0,12.8,6.311a.25.25,0,0,1-.354-.354,6.407,6.407,0,0,1,2.209-1.433A8.654,8.654,0,0,1,18.964,4.1a5.5,5.5,0,0,1,1.952.651,4.7,4.7,0,0,1,1.436,1.307.245.245,0,0,1-.212.373A.257.257,0,0,1,21.921,6.307Z" transform="translate(-5.892 -4)" fill="#333"/>
</svg>
