<svg xmlns="http://www.w3.org/2000/svg" width="16" height="13.7" viewBox="0 0 16 13.7"><g transform="translate(6.29 4.499)"><path d="M10,8l6,3-6,3Z" transform="translate(-10.631 -10.129)" fill="#005bac"/><path d="M2,1.4a.6.6,0,0,0-.6.6V8.74a.6.6,0,0,0,.6.6H14a.6.6,0,0,0,.6-.6V2a.6.6,0,0,0-.6-.6H2M2,0H14a2,2,0,0,1,2,2V8.74a2,2,0,0,1-2,2H2a2,2,0,0,1-2-2V2A2,2,0,0,1,2,0Z" transform="translate(-6.29 -4.499)" fill="#005bac"/><path d="M6.52.7H0A.7.7,0,0,1-.7,0,.7.7,0,0,1,0-.7H6.52a.7.7,0,0,1,.7.7A.7.7,0,0,1,6.52.7Z" transform="translate(-1.55 8.501)" fill="#005bac"/><path d="M0,3.01a.7.7,0,0,1-.7-.7V0A.7.7,0,0,1,0-.7.7.7,0,0,1,.7,0V2.31A.7.7,0,0,1,0,3.01Z" transform="translate(1.71 6.191)" fill="#005bac"/></g></svg>