<svg xmlns="http://www.w3.org/2000/svg" width="24" height="24" viewBox="0 0 24 24">
  <path id="mypage" d="M8.26,22.75a17.278,17.278,0,0,1,3.75-2.025A11.164,11.164,0,0,1,16,20.02,11.285,11.285,0,0,1,20,20.725,17.141,17.141,0,0,1,23.77,22.75a10.531,10.531,0,0,0,1.875-3.27A10.842,10.842,0,0,0,26.2,16,9.994,9.994,0,0,0,16,5.8,9.994,9.994,0,0,0,5.8,16a10.582,10.582,0,0,0,.57,3.48A10.8,10.8,0,0,0,8.26,22.75ZM16,16.9a4.048,4.048,0,0,1-4.11-4.11A4.048,4.048,0,0,1,16,8.68a4.048,4.048,0,0,1,4.11,4.11A4.048,4.048,0,0,1,16,16.9ZM16,28a11.611,11.611,0,0,1-4.65-.945,12.09,12.09,0,0,1-6.4-6.405,11.95,11.95,0,0,1,0-9.315,12.131,12.131,0,0,1,6.4-6.39,11.95,11.95,0,0,1,9.315,0,12.172,12.172,0,0,1,6.39,6.39,11.95,11.95,0,0,1,0,9.315,12.131,12.131,0,0,1-6.39,6.405A11.579,11.579,0,0,1,16,28Zm0-1.8a11,11,0,0,0,3.225-.48,9.584,9.584,0,0,0,3.1-1.68,13.057,13.057,0,0,0-3.12-1.65,9.324,9.324,0,0,0-6.42,0,13.057,13.057,0,0,0-3.12,1.65,9.584,9.584,0,0,0,3.105,1.68A11,11,0,0,0,16,26.2Zm0-11.1a2.21,2.21,0,0,0,2.31-2.31,2.311,2.311,0,1,0-4.62,0A2.21,2.21,0,0,0,16,15.1ZM16,12.79ZM16,24.01Z" transform="translate(-4 -4)" fill="#fff"/>
</svg>
