<svg xmlns="http://www.w3.org/2000/svg" width="24" height="18" viewBox="0 0 24 18"><path d="M4.05,27.25V22.979a1.665,1.665,0,0,1,1.5-1.678h3.6a1.716,1.716,0,0,1,.856.229,2.131,2.131,0,0,1,.676.595,6.317,6.317,0,0,0,2.343,2.105,6.432,6.432,0,0,0,3,.732,6.522,6.522,0,0,0,3.019-.732,6.283,6.283,0,0,0,2.358-2.105,2.19,2.19,0,0,1,.661-.595,1.635,1.635,0,0,1,.841-.229h3.6a1.66,1.66,0,0,1,1.532,1.678V27.25H21.111V23.925A8.039,8.039,0,0,1,18.8,25.374a7.162,7.162,0,0,1-2.763.534,7.3,7.3,0,0,1-2.718-.519,7.429,7.429,0,0,1-2.328-1.464V27.25Zm11.985-4.729a3.931,3.931,0,0,1-1.877-.473,4.362,4.362,0,0,1-1.487-1.3,4.3,4.3,0,0,0-.916-.992A4.492,4.492,0,0,0,10.6,19.1a6.754,6.754,0,0,1,2.523-.992,14.553,14.553,0,0,1,2.914-.32,14.464,14.464,0,0,1,2.929.32A7.049,7.049,0,0,1,21.5,19.1a4.492,4.492,0,0,0-1.156.656,4.3,4.3,0,0,0-.916.992,4.137,4.137,0,0,1-3.394,1.769ZM7.114,18.708A2.725,2.725,0,0,1,5.1,17.853a2.923,2.923,0,0,1,0-4.1,2.749,2.749,0,0,1,2.013-.839,2.735,2.735,0,0,1,2.028.839,2.961,2.961,0,0,1,0,4.1A2.711,2.711,0,0,1,7.114,18.708Zm17.842,0a2.725,2.725,0,0,1-2.013-.854,2.923,2.923,0,0,1,0-4.1,2.851,2.851,0,0,1,4.04,0,2.961,2.961,0,0,1,0,4.1A2.711,2.711,0,0,1,24.956,18.708Zm-8.921-3.661a2.725,2.725,0,0,1-2.013-.854,2.923,2.923,0,0,1,0-4.1,2.851,2.851,0,0,1,4.04,0,2.961,2.961,0,0,1,0,4.1A2.711,2.711,0,0,1,16.035,15.047Z" transform="translate(-4.05 -9.25)" fill="#005BAC"/></svg>
