<svg xmlns="http://www.w3.org/2000/svg" width="24" height="24" viewBox="0 0 24 24"><path id="tool" d="M20.89,22.21l1.32-1.23a.62.62,0,0,0,0-.93l-4.56-4.56a7.283,7.283,0,0,0,.24-.81,3.591,3.591,0,0,0,.09-.81,4.2,4.2,0,0,0-4.2-4.2,3.6,3.6,0,0,0-1.02.15,4.747,4.747,0,0,0-.99.42l2.64,2.61-1.62,1.53-2.58-2.55a4.213,4.213,0,0,0-.4.99,4.086,4.086,0,0,0-.135,1.05,3.913,3.913,0,0,0,1.2,2.9,3.988,3.988,0,0,0,2.91,1.185,4.521,4.521,0,0,0,.825-.075,5.351,5.351,0,0,0,.825-.225l4.53,4.56a.691.691,0,0,0,.93,0ZM16,28a11.611,11.611,0,0,1-4.65-.945,12.09,12.09,0,0,1-6.4-6.405,11.987,11.987,0,0,1,0-9.33,11.993,11.993,0,0,1,2.58-3.81A12.3,12.3,0,0,1,11.35,4.945a11.987,11.987,0,0,1,9.33,0,11.981,11.981,0,0,1,6.375,6.375,11.987,11.987,0,0,1,0,9.33,12.3,12.3,0,0,1-2.565,3.825,11.993,11.993,0,0,1-3.81,2.58A11.685,11.685,0,0,1,16,28Zm0-1.8a9.815,9.815,0,0,0,7.23-2.985A9.855,9.855,0,0,0,26.2,16a9.84,9.84,0,0,0-2.97-7.23A9.84,9.84,0,0,0,16,5.8,9.855,9.855,0,0,0,8.785,8.77,9.815,9.815,0,0,0,5.8,16a9.83,9.83,0,0,0,2.985,7.215A9.829,9.829,0,0,0,16,26.2ZM16,16Z" transform="translate(-4 -4)" fill="#005BAC"/></svg>
