<svg xmlns="http://www.w3.org/2000/svg" width="24.553" height="27.877" viewBox="0 0 24.553 27.877">
  <path id="交差_3" data-name="交差 3" d="M-17.072,30.193l0-.441c0-.135.029-.286-.145-.3-.258-.017-.52-.013-.781-.009-.138,0-.275,0-.411,0q-3.237-.018-6.476-.039h-.013l-2.086-.015H-27l-2.409.016q-2.218.016-4.435.028l-1.713.01-.4,0h-.305c-.167,0-.334,0-.5.008-.183.007-.168.127-.167.277l0,.437q0,.549.01,1.1,0,.077,0,.154-.307-.211-.6-.436,0-.454-.007-.909l0-.42a.754.754,0,0,1,.478-.756,1.372,1.372,0,0,1,.495-.049l.138,0,.648,0,3.061-.017q-.151-.257-.3-.515c-.17-.292-.363-.583-.5-.889-.183-.392.144-.668.4-.919q.24-.234.488-.459c-.122-.074-.245-.146-.369-.215-.23-.127-.556-.218-.542-.54a1.6,1.6,0,0,1,.344-.681l.03-.042-.633.251a.246.246,0,0,1-.134.053l-.791.314c-.451.18-.913.347-1.351.557a3.477,3.477,0,0,0-.973.615,3.487,3.487,0,0,0-.623.993q-.285.593-.555,1.194-.3.676-.587,1.36c-.157-.144-.311-.29-.463-.44q.4-.947.832-1.878a4.366,4.366,0,0,1,1.391-1.987,10.858,10.858,0,0,1,2.133-.981c-.077-.039-.153-.081-.226-.127a2.345,2.345,0,0,1-.787-.711,3.193,3.193,0,0,1-.286-1.98,15.312,15.312,0,0,1,.464-2.209,18.758,18.758,0,0,0,.427-3.716c-.013-.068-.023-.136-.032-.2a4.489,4.489,0,0,1-.034-1.29,3.3,3.3,0,0,1,.1-.486,15.193,15.193,0,0,1,.468-4.459A8.706,8.706,0,0,1-33.5,6.588a6.838,6.838,0,0,1,2.231-1.914,8.71,8.71,0,0,1,3.856-1.121,8.463,8.463,0,0,1,3.586.558.308.308,0,0,1,.21.369.3.3,0,0,1-.369.21,8.037,8.037,0,0,0-3.914-.5,8.254,8.254,0,0,0-3.439,1.224,5.9,5.9,0,0,0-1.867,1.8A10.812,10.812,0,0,0-34.7,12.908a1.282,1.282,0,0,1,.595-.29.351.351,0,0,1,.067-.01A1.355,1.355,0,0,1-32.828,13a8.6,8.6,0,0,1,1.5-.9c1.044-.475,2.191-.665,3.257-1.088a11.924,11.924,0,0,0,1.8-.894A5.579,5.579,0,0,0-24.895,9a.3.3,0,0,1,.425,0,.325.325,0,0,1,.068.114.312.312,0,0,1,.084.135c.016.043.032.086.049.129a.181.181,0,0,0,.009.023l.019.041c.039.088.079.175.122.261.093.188.194.372.3.553a12.243,12.243,0,0,0,1.456,2.011,6.35,6.35,0,0,0,.825.791,1.712,1.712,0,0,0,.515.3,1.213,1.213,0,0,1,1.4.089l0,0a16.4,16.4,0,0,0-.025-1.722,11.117,11.117,0,0,0-.191-1.716,8.885,8.885,0,0,0-.638-1.937,6.507,6.507,0,0,0-1.058-1.642c-.22-.242-.459-.469-.692-.7a3.071,3.071,0,0,0-.682-.506c-.338-.186-.036-.7.3-.517a3.8,3.8,0,0,1,.862.657c.265.264.54.52.78.807a8.5,8.5,0,0,1,1.742,3.873,13.375,13.375,0,0,1,.18,1.828,15.763,15.763,0,0,1-.007,2.041c0,.005,0,.011,0,.016a24.846,24.846,0,0,0,.226,3.188,18.208,18.208,0,0,0,.38,1.926c.131.5.3,1,.441,1.5a4.28,4.28,0,0,1,.051,2.716,2.7,2.7,0,0,1-1.182,1.34,8.729,8.729,0,0,1,2.47,1.213,2.987,2.987,0,0,1,.708.952c.212.411.4.835.595,1.256q.326.718.632,1.444c-.151.149-.306.3-.463.439q-.468-1.128-.989-2.232a6.591,6.591,0,0,0-.588-1.1,2.321,2.321,0,0,0-.774-.633,19.309,19.309,0,0,0-2.408-1.025q-.424-.166-.846-.335l.024.034a1.267,1.267,0,0,1,.3.664c-.014.286-.332.374-.542.491-.124.068-.247.141-.369.214q.258.235.509.479c.259.255.562.528.371.919-.159.326-.36.637-.543.951q-.144.247-.29.492l1.314.007,1.732.01.659,0a2.519,2.519,0,0,1,.616.027.739.739,0,0,1,.537.737c0,.145,0,.29,0,.435q0,.466-.008.933c-.2.149-.4.295-.6.435Q-17.077,30.807-17.072,30.193Zm-7.383-1.38,2.433.015q.445-.745.876-1.5a1.266,1.266,0,0,1,.1-.18l-.017-.025a3.72,3.72,0,0,1-.333-.33c-.226-.218-.458-.428-.692-.638a.3.3,0,0,1-.084-.25.3.3,0,0,1,.145-.221c.189-.112.376-.228.566-.338q.167-.08.329-.17l-.032-.058c-.039-.066-.08-.129-.122-.192a3.541,3.541,0,0,0-.264-.337,6.187,6.187,0,0,0-.543-.533.477.477,0,0,1-.039-.034l-.066-.056c-.179-.151-.366-.286-.557-.419C-23.216,25.333-23.831,27.078-24.455,28.814ZM-31.7,23.88a5.959,5.959,0,0,0-.75.734,3.746,3.746,0,0,0-.275.367c-.041.064-.082.129-.121.194l-.035.058c.109.061.22.118.333.171.19.111.378.226.567.338a.3.3,0,0,1,.144.221.3.3,0,0,1-.084.25c-.233.21-.465.42-.692.638q-.147.142-.292.289l-.063.065a.965.965,0,0,0,.093.155q.42.738.854,1.468l2.589-.016c-.613-1.755-1.207-3.517-1.8-5.278C-31.386,23.645-31.543,23.76-31.7,23.88ZM-27,28.8h0l1.908.014c.308-.857.615-1.715.9-2.58a9.625,9.625,0,0,1-2.59.355,11.7,11.7,0,0,1-2.91-.362q.441,1.295.892,2.587L-27,28.8Zm-2.766-3.217a11.048,11.048,0,0,0,2.991.4,8.455,8.455,0,0,0,2.822-.465c.2-.63.392-1.264.563-1.9a3.852,3.852,0,0,1-1.044-.919,1.563,1.563,0,0,1-.212-.708c-.013-.128-.021-.257-.025-.385-.041.012-.082.022-.123.031-.377.086-.536-.492-.16-.579a3.044,3.044,0,0,0,1.184-.6,7.175,7.175,0,0,0,1.6-1.85,6.413,6.413,0,0,0,.4-.733c-.005.014-.008.027,0,0l0,0,0-.005h0a.124.124,0,0,0,.005-.014l.03-.087c.032-.1.064-.191.092-.287a3.027,3.027,0,0,0,.141-.753h0c.013-.386.613-.386.6,0,0,.092-.013.183-.023.274a2.4,2.4,0,0,0,1.083-1.8,3.153,3.153,0,0,0,.037-.658A1.02,1.02,0,0,0-19.918,14a.6.6,0,0,0-.4-.229.594.594,0,0,0-.445.13.306.306,0,0,1-.319.066,2.441,2.441,0,0,1-.929-.526,9.5,9.5,0,0,1-1.715-1.94,9.182,9.182,0,0,1-1.032-1.769,7.154,7.154,0,0,1-1.343.981,14.62,14.62,0,0,1-3.352,1.38,11.016,11.016,0,0,0-1.715.589,8,8,0,0,0-1.354.831,4.645,4.645,0,0,1,.174,1.1,10.563,10.563,0,0,1,.02,1.67,2.991,2.991,0,0,1-.151.813,6.079,6.079,0,0,0,1.417,2.7A4.19,4.19,0,0,0-28.5,21.211a.306.306,0,0,1,.3.3.3.3,0,0,1-.3.3,4.292,4.292,0,0,1-.778-.153c-.006.135-.017.269-.031.4a1.388,1.388,0,0,1-.216.651,2.6,2.6,0,0,1-.543.509c-.165.125-.337.242-.51.354q.336,1,.674,2a.264.264,0,0,1,.055-.005A.356.356,0,0,1-29.767,25.579Zm6.98-2.781c.349.241.7.482,1.02.751l.006,0c.607.25,1.217.492,1.827.734a2.124,2.124,0,0,0,1.567-1.706A4,4,0,0,0-18.44,21.3a9.3,9.3,0,0,0-.307-1.156c-.138-.436-.261-.875-.364-1.319a22.869,22.869,0,0,1-.414-2.576,2.229,2.229,0,0,1-1.538,1.428,4,4,0,0,1-.2.529,7.823,7.823,0,0,1-1.252,1.864,5.457,5.457,0,0,1-1.56,1.292c0,.187.006.375.022.563a1.742,1.742,0,0,0,.057.287c.008.028.018.056.027.085,0,0,0,.005,0,.007.015.03.032.056.05.084l0,.008,0,0c.015.018.031.036.047.053q.047.051.1.1c.077.076.157.145.24.212s.194.153.293.225c0-.005,0-.011,0-.016a.3.3,0,0,1,.176-.2.3.3,0,0,1,.115-.022A.3.3,0,0,1-22.787,22.8Zm-12.119-4.622a13.989,13.989,0,0,1-.257,1.52c-.073.305-.141.611-.227.912a6.708,6.708,0,0,0-.219,1.081,2.906,2.906,0,0,0,.182,1.778,1.642,1.642,0,0,0,.562.5,1.9,1.9,0,0,0,.833.306c.609-.241,1.219-.483,1.824-.734a7.939,7.939,0,0,1,.991-.727.3.3,0,0,1,.264-.017.3.3,0,0,1,.175.194q.184-.12.361-.252c.067-.05.147-.114.219-.179.037-.033.072-.067.106-.1l.046-.049.014-.015.02-.027.026-.044,0,0v0h0v0c.005-.011.009-.024.006-.016,0-.014.01-.027.014-.041a1.78,1.78,0,0,0,.065-.306c.014-.171.022-.343.022-.514l-.043-.021A6.067,6.067,0,0,1-32.932,17.7a1.071,1.071,0,0,1-.593.159,8.264,8.264,0,0,0,.107,1.946,1.346,1.346,0,0,0,.156.44,1.67,1.67,0,0,0,.334.373,3.649,3.649,0,0,0,.378.265,1.3,1.3,0,0,1,.425-.177.828.828,0,0,1,.717.154.664.664,0,0,1,.145.964,1.022,1.022,0,0,1-.813.319.933.933,0,0,1-.814-.695.355.355,0,0,1,0-.076,2.189,2.189,0,0,1-1.082-1.316,9,9,0,0,1-.146-2.334,1.932,1.932,0,0,1-.682-.568Q-34.844,17.667-34.906,18.176ZM-21.7,23.6ZM-33.943,13.2l-.027.005a.9.9,0,0,0-.6.5,2.44,2.44,0,0,0-.123.287.255.255,0,0,1-.034.105,2.3,2.3,0,0,0-.1.595,4.184,4.184,0,0,0,.059,1,.291.291,0,0,1,.039.161.1.1,0,0,0,0,.016,2.8,2.8,0,0,0,.29.748,1.271,1.271,0,0,0,.63.6.532.532,0,0,0,.706-.2,2.4,2.4,0,0,0,.191-1.1,11.1,11.1,0,0,0-.049-1.416,2.638,2.638,0,0,0-.181-.91.319.319,0,0,1-.021-.039c-.012-.02-.023-.04-.036-.058a.735.735,0,0,0-.6-.3A.741.741,0,0,0-33.943,13.2Zm3.963,9.112v0h0Zm0-.013,0,.013Zm3.1-3.442a2.43,2.43,0,0,1-1.169-.27.3.3,0,0,1-.108-.41.306.306,0,0,1,.41-.108c.044.023.088.045.133.067l.01,0,.016.005c.036.013.072.026.109.037a2.005,2.005,0,0,0,.242.055l.059.007.081.006c.059,0,.119.007.178.007s.132,0,.2-.006c.028,0,.055,0,.083-.006l.044-.005a1.766,1.766,0,0,0,.263-.061c.034-.011.067-.023.1-.036-.082.031.007-.005.028-.015l.072-.042.037-.026,0,0,.007-.005a.308.308,0,0,1,.38.035.3.3,0,0,1,0,.425,1.9,1.9,0,0,1-1.1.348Zm-.134-2.03a.287.287,0,0,1-.179-.138.3.3,0,0,1,.108-.41.216.216,0,0,1,.112-.036l.039-.005c-.026-.137-.058-.272-.1-.407a.3.3,0,0,1,.21-.369.3.3,0,0,1,.369.21c.049.187.093.376.125.566a.663.663,0,0,1,0,.285.4.4,0,0,1-.222.265.612.612,0,0,1-.278.067C-26.882,16.848-26.943,16.832-27.007,16.823Zm2.139-2.864a.637.637,0,0,1,1.15.194c.1.321.034,1.059-.574,1.122C-25.1,15.271-25.138,14.378-24.868,13.959Zm-5.287.194a.636.636,0,0,1,1.149-.194c.271.419.228,1.312-.576,1.317C-30.189,15.213-30.253,14.475-30.155,14.153Z" transform="translate(39.277 -3.543)" fill="#005bac"/>
</svg>
